<svg xmlns="http://www.w3.org/2000/svg" viewBox="-18 0 136 110">
  <!-- Cloche dome (left side, raised) -->
  <path d="M-16 26 Q-15 8 4 7 Q23 8 24 26 Z" fill="#E8E8E8" stroke="#C8C8C8" stroke-width="1"/>
  <!-- Cloche handle -->
  <ellipse cx="4" cy="7" rx="4.5" ry="3.5" fill="#D0D0D0" stroke="#B8B8B8" stroke-width="0.8"/>
  <!-- Tray -->
  <ellipse cx="4" cy="28" rx="20" ry="4.5" fill="#D4D4D4" stroke="#B4B4B4" stroke-width="1"/>
  <ellipse cx="4" cy="27" rx="18" ry="3" fill="#E0E0E0"/>

  <!-- Legs -->
  <rect x="27" y="88" width="14" height="20" rx="4" fill="#1a2744"/>
  <rect x="47" y="88" width="13" height="20" rx="4" fill="#1a2744"/>
  <!-- Shoes -->
  <ellipse cx="34" cy="107" rx="11" ry="4" fill="#111827"/>
  <ellipse cx="53" cy="107" rx="10" ry="4" fill="#111827"/>
  <!-- Body -->
  <ellipse cx="44" cy="72" rx="30" ry="24" fill="#1a2744"/>
  <rect x="14" y="82" width="60" height="10" fill="#1a2744"/>
  <!-- Right arm (down, on right side) -->
  <path d="M72 64 Q78 75 78 87" stroke="#1a2744" stroke-width="11" fill="none" stroke-linecap="round"/>
  <ellipse cx="78" cy="91" rx="5" ry="4" fill="#f5c4a1" transform="rotate(-10 78 91)"/>
  <!-- Left arm raised (on left side) -->
  <path d="M16 60 Q8 44 4 26" stroke="#1a2744" stroke-width="11" fill="none" stroke-linecap="round"/>
  <ellipse cx="4" cy="22" rx="6" ry="5" fill="#f5c4a1" transform="rotate(20 4 22)"/>
  <!-- Shirt -->
  <ellipse cx="44" cy="70" rx="7" ry="17" fill="#f2ede8"/>
  <!-- Lapels -->
  <path d="M37 57 L44 71 L37 83 L14 70 L14 57Z" fill="#1a2744"/>
  <path d="M51 57 L44 71 L51 83 L74 70 L74 57Z" fill="#1a2744"/>
  <!-- Collar -->
  <path d="M37 57 L44 54 L51 57" fill="white"/>
  <!-- Bow tie (brand blue) -->
  <path d="M36 54 L44 57.5 L36 61Z" fill="#0c87f0"/>
  <path d="M52 54 L44 57.5 L52 61Z" fill="#0c87f0"/>
  <circle cx="44" cy="57.5" r="2.5" fill="#0a6ecb"/>
  <!-- Neck -->
  <rect x="39" y="50" width="10" height="7" rx="2" fill="#e8ad8a"/>
  <!-- Head -->
  <ellipse cx="48" cy="31" rx="24" ry="26" fill="#f5c4a1"/>
  <!-- Cheeks -->
  <circle cx="30" cy="37" r="7" fill="#e8909a" opacity="0.38"/>
  <circle cx="66" cy="37" r="7" fill="#e8909a" opacity="0.38"/>
  <!-- Eyebrows -->
  <path d="M30 23 Q37 20 43 22" stroke="#7a5230" stroke-width="2" fill="none" stroke-linecap="round"/>
  <path d="M53 22 Q60 20 67 23" stroke="#7a5230" stroke-width="2" fill="none" stroke-linecap="round"/>
  <!-- Eyes -->
  <ellipse cx="37" cy="30" rx="5.5" ry="6" fill="white"/>
  <circle cx="37" cy="31" r="3.2" fill="#3d2b1f"/>
  <circle cx="38.5" cy="29.5" r="1.1" fill="white"/>
  <ellipse cx="59" cy="30" rx="5.5" ry="6" fill="white"/>
  <circle cx="59" cy="31" r="3.2" fill="#3d2b1f"/>
  <circle cx="60.5" cy="29.5" r="1.1" fill="white"/>
  <!-- Mustache -->
  <path d="M37 44 Q42 47 48 45 Q54 47 59 44" stroke="#7a5230" stroke-width="2.2" fill="none" stroke-linecap="round"/>
  <!-- Smile -->
  <path d="M39 49 Q48 57 57 49" fill="#c0392b" opacity="0.7"/>
  <path d="M39 49 Q48 52 57 49" fill="#f5f0ea"/>
</svg>
